<svg width="128" height="128" viewBox="0 0 128 128" fill="none" xmlns="http://www.w3.org/2000/svg">
  <defs>
    <radialGradient id="palmGlow" cx="0" cy="0" r="1" gradientUnits="userSpaceOnUse" gradientTransform="translate(66 63) rotate(35) scale(75 72)">
      <stop offset="0" stop-color="#FFEFC0"/>
      <stop offset="0.38" stop-color="#FFD972"/>
      <stop offset="0.72" stop-color="#EEB93B"/>
      <stop offset="1" stop-color="#C78914"/>
    </radialGradient>
    <linearGradient id="fingerTone" x1="42" y1="18" x2="92" y2="78" gradientUnits="userSpaceOnUse">
      <stop offset="0" stop-color="#FFF3CC"/>
      <stop offset="0.5" stop-color="#FFD768"/>
      <stop offset="1" stop-color="#D89A1E"/>
    </linearGradient>
    <linearGradient id="edgeShade" x1="33" y1="52" x2="103" y2="113" gradientUnits="userSpaceOnUse">
      <stop offset="0" stop-color="#935F05" stop-opacity="0"/>
      <stop offset="1" stop-color="#7A4D02" stop-opacity="0.5"/>
    </linearGradient>
  </defs>

  <path d="M32 69.8C32 60.1 39.9 52.2 49.6 52.2H84.6C95.1 52.2 103.6 60.7 103.6 71.2V78.1C103.6 97.2 88.1 112.7 69 112.7H58.3C43.8 112.7 32 100.9 32 86.4V69.8Z" fill="url(#palmGlow)"/>

  <path d="M47.8 32C47.8 25.9 52.7 21 58.8 21C64.9 21 69.8 25.9 69.8 32V64.8H47.8V32Z" fill="url(#fingerTone)"/>
  <path d="M36.3 42.2C36.3 36.3 41.1 31.5 47 31.5C52.9 31.5 57.7 36.3 57.7 42.2V68.9H36.3V42.2Z" fill="url(#fingerTone)"/>
  <path d="M58.9 40.3C58.9 34.5 63.6 29.8 69.4 29.8C75.2 29.8 79.9 34.5 79.9 40.3V68.8H58.9V40.3Z" fill="url(#fingerTone)"/>
  <path d="M70.5 46.4C70.5 40.8 75 36.3 80.6 36.3C86.2 36.3 90.7 40.8 90.7 46.4V70.3H70.5V46.4Z" fill="url(#fingerTone)"/>

  <path d="M32 69.8C32 60.1 39.9 52.2 49.6 52.2H84.6C95.1 52.2 103.6 60.7 103.6 71.2V78.1C103.6 97.2 88.1 112.7 69 112.7H58.3C43.8 112.7 32 100.9 32 86.4V69.8Z" fill="url(#edgeShade)"/>

  <path d="M48 32.2V64.2M58.8 30V62.8M69.3 30V63.1M80.6 36.3V66M42.4 52.3V75.8" stroke="#9A660B" stroke-width="3.2" stroke-linecap="round"/>
  <path d="M45.8 63.8C49.3 62.3 53.4 62.2 57 63.7" stroke="#BA7E11" stroke-width="2" stroke-linecap="round"/>
  <path d="M57.2 63.2C60.6 61.9 64.6 61.8 68.1 63" stroke="#BA7E11" stroke-width="2" stroke-linecap="round"/>
  <path d="M68.4 63.6C71.7 62.4 75.4 62.3 78.8 63.4" stroke="#BA7E11" stroke-width="2" stroke-linecap="round"/>
  <path d="M36.6 80.2C39.1 89.4 46.5 96.6 56.8 99.3" stroke="#FFE4A2" stroke-width="2.2" stroke-linecap="round"/>

  <path d="M32 69.8C32 60.1 39.9 52.2 49.6 52.2H84.6C95.1 52.2 103.6 60.7 103.6 71.2V78.1C103.6 97.2 88.1 112.7 69 112.7H58.3C43.8 112.7 32 100.9 32 86.4V69.8Z" stroke="#855605" stroke-width="3.2" stroke-linejoin="round"/>

  <path d="M17.2 30.8C22.1 26.1 28.2 23.4 34.8 23.3" stroke="#FFE89B" stroke-width="3.8" stroke-linecap="round"/>
  <path d="M13.4 45.8C20 42.9 27.4 42.8 34.1 45" stroke="#FFE89B" stroke-width="3.8" stroke-linecap="round"/>
  <path d="M19.5 60.1C24.5 58.2 30.1 58.2 35.1 60" stroke="#FFE89B" stroke-width="3.8" stroke-linecap="round"/>
</svg>
